SplineFontDB: 3.0
FontName: Untitled1
FullName: Untitled1
FamilyName: Untitled1
Weight: Medium
Copyright: Created by stephen,,, with FontForge 2.0 (http://fontforge.sf.net)
UComments: "2017-1-8: Created." 
Version: 001.000
ItalicAngle: 0
UnderlinePosition: -100
UnderlineWidth: 50
Ascent: 800
Descent: 200
LayerCount: 2
Layer: 0 0 "Back"  1
Layer: 1 0 "Fore"  0
XUID: [1021 874 1639922702 8504825]
OS2Version: 0
OS2_WeightWidthSlopeOnly: 0
OS2_UseTypoMetrics: 1
CreationTime: 1483901862
ModificationTime: 1483901862
OS2TypoAscent: 0
OS2TypoAOffset: 1
OS2TypoDescent: 0
OS2TypoDOffset: 1
OS2TypoLinegap: 0
OS2WinAscent: 0
OS2WinAOffset: 1
OS2WinDescent: 0
OS2WinDOffset: 1
HheadAscent: 0
HheadAOffset: 1
HheadDescent: 0
HheadDOffset: 1
OS2Vendor: 'PfEd'
DEI: 91125
Encoding: ISO8859-1
UnicodeInterp: none
NameList: Adobe Glyph List
DisplaySize: -24
AntiAlias: 1
FitToEm: 1
BeginChars: 256 123

StartChar: uni0000
Encoding: 0 0 0
Width: 1000
VWidth: 0
Flags: H
LayerCount: 2
Fore
SplineSet
0 300 m 1
 0 800 l 1
 500 800 l 1
 1000 800 l 1
 1000 300 l 1
 1000 -200 l 1
 500 -200 l 1
 0 -200 l 1
 0 300 l 1
500 425 m 1
 500 550 l 1
 375 550 l 1
 250 550 l 1
 250 425 l 1
 250 300 l 1
 375 300 l 1
 500 300 l 1
 500 175 l 1
 500 50 l 1
 625 50 l 1
 750 50 l 1
 750 175 l 1
 750 300 l 1
 625 300 l 1
 500 300 l 1
 500 425 l 1
EndSplineSet
EndChar

StartChar: uni0001
Encoding: 1 1 1
Width: 1000
VWidth: 0
Flags: H
LayerCount: 2
Fore
SplineSet
0 675 m 1
 0 800 l 1
 125 800 l 1
 250 800 l 1
 250 675 l 1
 250 550 l 1
 125 550 l 1
 0 550 l 1
 0 675 l 1
500 675 m 1
 500 800 l 1
 625 800 l 1
 750 800 l 1
 750 675 l 1
 750 550 l 1
 625 550 l 1
 500 550 l 1
 500 675 l 1
750 175 m 1
 750 300 l 1
 875 300 l 1
 1000 300 l 1
 1000 50 l 1
 1000 -200 l 1
 500 -200 l 1
 0 -200 l 1
 0 -75 l 1
 0 50 l 1
 375 50 l 1
 750 50 l 1
 750 175 l 1
EndSplineSet
EndChar

StartChar: uni0002
Encoding: 2 2 2
Width: 1000
VWidth: 0
Flags: H
LayerCount: 2
Fore
SplineSet
250 675 m 1
 250 800 l 1
 375 800 l 1
 500 800 l 1
 500 675 l 1
 500 550 l 1
 625 550 l 1
 750 550 l 1
 750 675 l 1
 750 800 l 1
 875 800 l 1
 1000 800 l 1
 1000 550 l 1
 1000 300 l 1
 875 300 l 1
 750 300 l 1
 750 175 l 1
 750 50 l 1
 375 50 l 1
 0 50 l 1
 0 300 l 1
 0 550 l 1
 125 550 l 1
 250 550 l 1
 250 675 l 1
EndSplineSet
EndChar

StartChar: uni0003
Encoding: 3 3 3
Width: 1000
VWidth: 0
Flags: H
LayerCount: 2
Fore
SplineSet
0 425 m 1
 0 800 l 1
 125 800 l 1
 250 800 l 1
 250 675 l 1
 250 550 l 1
 375 550 l 1
 500 550 l 1
 500 675 l 1
 500 800 l 1
 625 800 l 1
 750 800 l 1
 750 425 l 1
 750 50 l 1
 625 50 l 1
 500 50 l 1
 500 -75 l 1
 500 -200 l 1
 375 -200 l 1
 250 -200 l 1
 250 -75 l 1
 250 50 l 1
 125 50 l 1
 0 50 l 1
 0 425 l 1
EndSplineSet
EndChar

StartChar: uni0004
Encoding: 4 4 4
Width: 1000
VWidth: 0
Flags: H
LayerCount: 2
Fore
SplineSet
250 675 m 1
 250 800 l 1
 375 800 l 1
 500 800 l 1
 500 675 l 1
 500 550 l 1
 625 550 l 1
 750 550 l 1
 750 300 l 1
 750 50 l 1
 625 50 l 1
 500 50 l 1
 500 -75 l 1
 500 -200 l 1
 375 -200 l 1
 250 -200 l 1
 250 -75 l 1
 250 50 l 1
 125 50 l 1
 0 50 l 1
 0 300 l 1
 0 550 l 1
 125 550 l 1
 250 550 l 1
 250 675 l 1
EndSplineSet
EndChar

StartChar: uni0005
Encoding: 5 5 5
Width: 1000
VWidth: 0
Flags: H
LayerCount: 2
Fore
SplineSet
250 675 m 1
 250 800 l 1
 500 800 l 1
 750 800 l 1
 750 675 l 1
 750 550 l 1
 875 550 l 1
 1000 550 l 1
 1000 300 l 1
 1000 50 l 1
 875 50 l 1
 750 50 l 1
 750 -75 l 1
 750 -200 l 1
 500 -200 l 1
 250 -200 l 1
 250 -75 l 1
 250 50 l 1
 125 50 l 1
 0 50 l 1
 0 300 l 1
 0 550 l 1
 125 550 l 1
 250 550 l 1
 250 675 l 1
EndSplineSet
EndChar

StartChar: uni0006
Encoding: 6 6 6
Width: 1000
VWidth: 0
Flags: H
LayerCount: 2
Fore
SplineSet
250 550 m 1
 250 800 l 1
 500 800 l 1
 750 800 l 1
 750 550 l 1
 750 300 l 1
 875 300 l 1
 1000 300 l 1
 1000 175 l 1
 1000 50 l 1
 875 50 l 1
 750 50 l 1
 750 -75 l 1
 750 -200 l 1
 500 -200 l 1
 250 -200 l 1
 250 -75 l 1
 250 50 l 1
 125 50 l 1
 0 50 l 1
 0 175 l 1
 0 300 l 1
 125 300 l 1
 250 300 l 1
 250 550 l 1
EndSplineSet
EndChar

StartChar: uni0007
Encoding: 7 7 7
Width: 1000
VWidth: 0
Flags: H
LayerCount: 2
Fore
SplineSet
250 175 m 1
 250 300 l 1
 375 300 l 1
 500 300 l 1
 500 175 l 1
 500 50 l 1
 375 50 l 1
 250 50 l 1
 250 175 l 1
EndSplineSet
EndChar

StartChar: uni0008
Encoding: 8 8 8
Width: 1000
VWidth: 0
Flags: H
LayerCount: 2
Fore
SplineSet
0 300 m 1
 0 800 l 1
 500 800 l 1
 1000 800 l 1
 1000 300 l 1
 1000 -200 l 1
 500 -200 l 1
 0 -200 l 1
 0 300 l 1
500 175 m 1
 500 300 l 1
 375 300 l 1
 250 300 l 1
 250 175 l 1
 250 50 l 1
 375 50 l 1
 500 50 l 1
 500 175 l 1
EndSplineSet
EndChar

StartChar: uni0009
Encoding: 9 9 9
Width: 1000
VWidth: 0
Flags: H
LayerCount: 2
Fore
SplineSet
0 425 m 1
 0 800 l 1
 375 800 l 1
 750 800 l 1
 750 425 l 1
 750 50 l 1
 375 50 l 1
 0 50 l 1
 0 425 l 1
500 425 m 1
 500 550 l 1
 375 550 l 1
 250 550 l 1
 250 425 l 1
 250 300 l 1
 375 300 l 1
 500 300 l 1
 500 425 l 1
EndSplineSet
EndChar

StartChar: uni000A
Encoding: 10 10 10
Width: 1000
VWidth: 0
Flags: H
LayerCount: 2
Fore
SplineSet
750 425 m 1
 750 800 l 1
 875 800 l 1
 1000 800 l 1
 1000 300 l 1
 1000 -200 l 1
 500 -200 l 1
 0 -200 l 1
 0 -75 l 1
 0 50 l 1
 375 50 l 1
 750 50 l 1
 750 425 l 1
250 425 m 1
 250 550 l 1
 375 550 l 1
 500 550 l 1
 500 425 l 1
 500 300 l 1
 375 300 l 1
 250 300 l 1
 250 425 l 1
EndSplineSet
EndChar

StartChar: uni000B
Encoding: 11 11 11
Width: 1000
VWidth: 0
Flags: H
LayerCount: 2
Fore
SplineSet
250 675 m 1
 250 800 l 1
 625 800 l 1
 1000 800 l 1
 1000 425 l 1
 1000 50 l 1
 875 50 l 1
 750 50 l 1
 750 175 l 1
 750 300 l 1
 625 300 l 1
 500 300 l 1
 500 50 l 1
 500 -200 l 1
 250 -200 l 1
 0 -200 l 1
 0 50 l 1
 0 300 l 1
 250 300 l 1
 500 300 l 1
 500 425 l 1
 500 550 l 1
 375 550 l 1
 250 550 l 1
 250 675 l 1
EndSplineSet
EndChar

StartChar: uni000C
Encoding: 12 12 12
Width: 1000
VWidth: 0
Flags: H
LayerCount: 2
Fore
SplineSet
0 550 m 1
 0 800 l 1
 375 800 l 1
 750 800 l 1
 750 550 l 1
 750 300 l 1
 625 300 l 1
 500 300 l 1
 500 175 l 1
 500 50 l 1
 625 50 l 1
 750 50 l 1
 750 -75 l 1
 750 -200 l 1
 375 -200 l 1
 0 -200 l 1
 0 -75 l 1
 0 50 l 1
 125 50 l 1
 250 50 l 1
 250 175 l 1
 250 300 l 1
 125 300 l 1
 0 300 l 1
 0 550 l 1
EndSplineSet
EndChar

StartChar: uni000D
Encoding: 13 13 13
Width: 1000
VWidth: 0
Flags: H
LayerCount: 2
Fore
SplineSet
250 550 m 1
 250 800 l 1
 500 800 l 1
 750 800 l 1
 750 675 l 1
 750 550 l 1
 625 550 l 1
 500 550 l 1
 500 175 l 1
 500 -200 l 1
 250 -200 l 1
 0 -200 l 1
 0 50 l 1
 0 300 l 1
 125 300 l 1
 250 300 l 1
 250 550 l 1
EndSplineSet
EndChar

StartChar: uni000E
Encoding: 14 14 14
Width: 1000
VWidth: 0
Flags: H
LayerCount: 2
Fore
SplineSet
250 675 m 1
 250 800 l 1
 625 800 l 1
 1000 800 l 1
 1000 300 l 1
 1000 -200 l 1
 750 -200 l 1
 500 -200 l 1
 500 -75 l 1
 500 50 l 1
 250 50 l 1
 0 50 l 1
 0 300 l 1
 0 550 l 1
 125 550 l 1
 250 550 l 1
 250 675 l 1
750 425 m 1
 750 550 l 1
 625 550 l 1
 500 550 l 1
 500 425 l 1
 500 300 l 1
 625 300 l 1
 750 300 l 1
 750 425 l 1
EndSplineSet
EndChar

StartChar: uni001E
Encoding: 30 30 15
Width: 1000
VWidth: 0
Flags: H
LayerCount: 2
Fore
SplineSet
250 425 m 1
 250 550 l 1
 375 550 l 1
 500 550 l 1
 500 425 l 1
 500 300 l 1
 625 300 l 1
 750 300 l 1
 750 175 l 1
 750 50 l 1
 375 50 l 1
 0 50 l 1
 0 175 l 1
 0 300 l 1
 125 300 l 1
 250 300 l 1
 250 425 l 1
EndSplineSet
EndChar

StartChar: uni001F
Encoding: 31 31 16
Width: 1000
VWidth: 0
Flags: H
LayerCount: 2
Fore
SplineSet
0 425 m 1
 0 550 l 1
 375 550 l 1
 750 550 l 1
 750 425 l 1
 750 300 l 1
 625 300 l 1
 500 300 l 1
 500 175 l 1
 500 50 l 1
 375 50 l 1
 250 50 l 1
 250 175 l 1
 250 300 l 1
 125 300 l 1
 0 300 l 1
 0 425 l 1
EndSplineSet
EndChar

StartChar: exclam
Encoding: 33 33 18
Width: 1000
VWidth: 0
Flags: H
LayerCount: 2
Fore
SplineSet
250 550 m 1
 250 800 l 1
 375 800 l 1
 500 800 l 1
 500 550 l 1
 500 300 l 1
 375 300 l 1
 250 300 l 1
 250 550 l 1
250 -75 m 1
 250 50 l 1
 375 50 l 1
 500 50 l 1
 500 -75 l 1
 500 -200 l 1
 375 -200 l 1
 250 -200 l 1
 250 -75 l 1
EndSplineSet
EndChar

StartChar: quotedbl
Encoding: 34 34 19
Width: 1000
VWidth: 0
Flags: H
LayerCount: 2
Fore
SplineSet
0 550 m 1
 0 800 l 1
 125 800 l 1
 250 800 l 1
 250 550 l 1
 250 300 l 1
 125 300 l 1
 0 300 l 1
 0 550 l 1
500 550 m 1
 500 800 l 1
 625 800 l 1
 750 800 l 1
 750 550 l 1
 750 300 l 1
 625 300 l 1
 500 300 l 1
 500 550 l 1
EndSplineSet
EndChar

StartChar: numbersign
Encoding: 35 35 20
Width: 1000
VWidth: 0
Flags: H
LayerCount: 2
Fore
SplineSet
0 300 m 1
 0 800 l 1
 125 800 l 1
 250 800 l 1
 250 675 l 1
 250 550 l 1
 375 550 l 1
 500 550 l 1
 500 675 l 1
 500 800 l 1
 625 800 l 1
 750 800 l 1
 750 675 l 1
 750 550 l 1
 875 550 l 1
 1000 550 l 1
 1000 425 l 1
 1000 300 l 1
 875 300 l 1
 750 300 l 1
 750 175 l 1
 750 50 l 1
 875 50 l 1
 1000 50 l 1
 1000 -75 l 1
 1000 -200 l 1
 500 -200 l 1
 0 -200 l 1
 0 300 l 1
500 175 m 1
 500 300 l 1
 375 300 l 1
 250 300 l 1
 250 175 l 1
 250 50 l 1
 375 50 l 1
 500 50 l 1
 500 175 l 1
EndSplineSet
EndChar

StartChar: dollar
Encoding: 36 36 21
Width: 1000
VWidth: 0
Flags: H
LayerCount: 2
Fore
SplineSet
0 550 m 1
 0 800 l 1
 375 800 l 1
 750 800 l 1
 750 675 l 1
 750 550 l 1
 625 550 l 1
 500 550 l 1
 500 425 l 1
 500 300 l 1
 625 300 l 1
 750 300 l 1
 750 50 l 1
 750 -200 l 1
 375 -200 l 1
 0 -200 l 1
 0 -75 l 1
 0 50 l 1
 125 50 l 1
 250 50 l 1
 250 175 l 1
 250 300 l 1
 125 300 l 1
 0 300 l 1
 0 550 l 1
EndSplineSet
EndChar

StartChar: percent
Encoding: 37 37 22
Width: 1000
VWidth: 0
Flags: H
LayerCount: 2
Fore
SplineSet
0 675 m 1
 0 800 l 1
 125 800 l 1
 250 800 l 1
 250 675 l 1
 250 550 l 1
 125 550 l 1
 0 550 l 1
 0 675 l 1
750 675 m 1
 750 800 l 1
 875 800 l 1
 1000 800 l 1
 1000 675 l 1
 1000 550 l 1
 875 550 l 1
 750 550 l 1
 750 425 l 1
 750 300 l 1
 625 300 l 1
 500 300 l 1
 500 175 l 1
 500 50 l 1
 375 50 l 1
 250 50 l 1
 250 -75 l 1
 250 -200 l 1
 125 -200 l 1
 0 -200 l 1
 0 -75 l 1
 0 50 l 1
 125 50 l 1
 250 50 l 1
 250 175 l 1
 250 300 l 1
 375 300 l 1
 500 300 l 1
 500 425 l 1
 500 550 l 1
 625 550 l 1
 750 550 l 1
 750 675 l 1
750 -75 m 1
 750 50 l 1
 875 50 l 1
 1000 50 l 1
 1000 -75 l 1
 1000 -200 l 1
 875 -200 l 1
 750 -200 l 1
 750 -75 l 1
EndSplineSet
EndChar

StartChar: ampersand
Encoding: 38 38 23
Width: 1000
VWidth: 0
Flags: H
LayerCount: 2
Fore
SplineSet
250 550 m 1
 250 800 l 1
 500 800 l 1
 750 800 l 1
 750 425 l 1
 750 50 l 1
 875 50 l 1
 1000 50 l 1
 1000 -75 l 1
 1000 -200 l 1
 500 -200 l 1
 0 -200 l 1
 0 50 l 1
 0 300 l 1
 125 300 l 1
 250 300 l 1
 250 550 l 1
500 175 m 1
 500 300 l 1
 375 300 l 1
 250 300 l 1
 250 175 l 1
 250 50 l 1
 375 50 l 1
 500 50 l 1
 500 175 l 1
EndSplineSet
EndChar

StartChar: quotesingle
Encoding: 39 39 24
Width: 1000
VWidth: 0
Flags: H
LayerCount: 2
Fore
SplineSet
250 550 m 1
 250 800 l 1
 375 800 l 1
 500 800 l 1
 500 550 l 1
 500 300 l 1
 375 300 l 1
 250 300 l 1
 250 550 l 1
EndSplineSet
EndChar

StartChar: parenleft
Encoding: 40 40 25
Width: 1000
VWidth: 0
Flags: H
LayerCount: 2
Fore
SplineSet
500 675 m 1
 500 800 l 1
 625 800 l 1
 750 800 l 1
 750 675 l 1
 750 550 l 1
 625 550 l 1
 500 550 l 1
 500 300 l 1
 500 50 l 1
 625 50 l 1
 750 50 l 1
 750 -75 l 1
 750 -200 l 1
 625 -200 l 1
 500 -200 l 1
 500 -75 l 1
 500 50 l 1
 375 50 l 1
 250 50 l 1
 250 300 l 1
 250 550 l 1
 375 550 l 1
 500 550 l 1
 500 675 l 1
EndSplineSet
EndChar

StartChar: parenright
Encoding: 41 41 26
Width: 1000
VWidth: 0
Flags: H
LayerCount: 2
Fore
SplineSet
250 675 m 1
 250 800 l 1
 375 800 l 1
 500 800 l 1
 500 675 l 1
 500 550 l 1
 625 550 l 1
 750 550 l 1
 750 300 l 1
 750 50 l 1
 625 50 l 1
 500 50 l 1
 500 -75 l 1
 500 -200 l 1
 375 -200 l 1
 250 -200 l 1
 250 -75 l 1
 250 50 l 1
 375 50 l 1
 500 50 l 1
 500 300 l 1
 500 550 l 1
 375 550 l 1
 250 550 l 1
 250 675 l 1
EndSplineSet
EndChar

StartChar: asterisk
Encoding: 42 42 27
Width: 1000
VWidth: 0
Flags: H
LayerCount: 2
Fore
SplineSet
0 675 m 1
 0 800 l 1
 125 800 l 1
 250 800 l 1
 250 675 l 1
 250 550 l 1
 375 550 l 1
 500 550 l 1
 500 675 l 1
 500 800 l 1
 625 800 l 1
 750 800 l 1
 750 675 l 1
 750 550 l 1
 625 550 l 1
 500 550 l 1
 500 425 l 1
 500 300 l 1
 625 300 l 1
 750 300 l 1
 750 175 l 1
 750 50 l 1
 625 50 l 1
 500 50 l 1
 500 175 l 1
 500 300 l 1
 375 300 l 1
 250 300 l 1
 250 175 l 1
 250 50 l 1
 125 50 l 1
 0 50 l 1
 0 175 l 1
 0 300 l 1
 125 300 l 1
 250 300 l 1
 250 425 l 1
 250 550 l 1
 125 550 l 1
 0 550 l 1
 0 675 l 1
EndSplineSet
EndChar

StartChar: plus
Encoding: 43 43 28
Width: 1000
VWidth: 0
Flags: H
LayerCount: 2
Fore
SplineSet
250 425 m 1
 250 550 l 1
 375 550 l 1
 500 550 l 1
 500 425 l 1
 500 300 l 1
 625 300 l 1
 750 300 l 1
 750 175 l 1
 750 50 l 1
 625 50 l 1
 500 50 l 1
 500 -75 l 1
 500 -200 l 1
 375 -200 l 1
 250 -200 l 1
 250 -75 l 1
 250 50 l 1
 125 50 l 1
 0 50 l 1
 0 175 l 1
 0 300 l 1
 125 300 l 1
 250 300 l 1
 250 425 l 1
EndSplineSet
EndChar

StartChar: comma
Encoding: 44 44 29
Width: 1000
VWidth: 0
Flags: H
LayerCount: 2
Fore
SplineSet
500 175 m 1
 500 300 l 1
 625 300 l 1
 750 300 l 1
 750 175 l 1
 750 50 l 1
 625 50 l 1
 500 50 l 1
 500 -75 l 1
 500 -200 l 1
 375 -200 l 1
 250 -200 l 1
 250 -75 l 1
 250 50 l 1
 375 50 l 1
 500 50 l 1
 500 175 l 1
EndSplineSet
EndChar

StartChar: hyphen
Encoding: 45 45 30
Width: 1000
VWidth: 0
Flags: H
LayerCount: 2
Fore
SplineSet
0 175 m 1
 0 300 l 1
 375 300 l 1
 750 300 l 1
 750 175 l 1
 750 50 l 1
 375 50 l 1
 0 50 l 1
 0 175 l 1
EndSplineSet
EndChar

StartChar: period
Encoding: 46 46 31
Width: 1000
VWidth: 0
Flags: H
LayerCount: 2
Fore
SplineSet
250 -75 m 1
 250 50 l 1
 375 50 l 1
 500 50 l 1
 500 -75 l 1
 500 -200 l 1
 375 -200 l 1
 250 -200 l 1
 250 -75 l 1
EndSplineSet
EndChar

StartChar: slash
Encoding: 47 47 32
Width: 1000
VWidth: 0
Flags: H
LayerCount: 2
Fore
SplineSet
750 675 m 1
 750 800 l 1
 875 800 l 1
 1000 800 l 1
 1000 675 l 1
 1000 550 l 1
 875 550 l 1
 750 550 l 1
 750 425 l 1
 750 300 l 1
 625 300 l 1
 500 300 l 1
 500 175 l 1
 500 50 l 1
 375 50 l 1
 250 50 l 1
 250 -75 l 1
 250 -200 l 1
 125 -200 l 1
 0 -200 l 1
 0 -75 l 1
 0 50 l 1
 125 50 l 1
 250 50 l 1
 250 175 l 1
 250 300 l 1
 375 300 l 1
 500 300 l 1
 500 425 l 1
 500 550 l 1
 625 550 l 1
 750 550 l 1
 750 675 l 1
EndSplineSet
EndChar

StartChar: zero
Encoding: 48 48 33
Width: 1000
VWidth: 0
Flags: H
LayerCount: 2
Fore
SplineSet
250 675 m 1
 250 800 l 1
 500 800 l 1
 750 800 l 1
 750 425 l 1
 750 50 l 1
 625 50 l 1
 500 50 l 1
 500 -75 l 1
 500 -200 l 1
 250 -200 l 1
 0 -200 l 1
 0 175 l 1
 0 550 l 1
 125 550 l 1
 250 550 l 1
 250 675 l 1
500 300 m 1
 500 550 l 1
 375 550 l 1
 250 550 l 1
 250 300 l 1
 250 50 l 1
 375 50 l 1
 500 50 l 1
 500 300 l 1
EndSplineSet
EndChar

StartChar: one
Encoding: 49 49 34
Width: 1000
VWidth: 0
Flags: H
LayerCount: 2
Fore
SplineSet
500 675 m 1
 500 800 l 1
 625 800 l 1
 750 800 l 1
 750 300 l 1
 750 -200 l 1
 625 -200 l 1
 500 -200 l 1
 500 50 l 1
 500 300 l 1
 375 300 l 1
 250 300 l 1
 250 425 l 1
 250 550 l 1
 375 550 l 1
 500 550 l 1
 500 675 l 1
EndSplineSet
EndChar

StartChar: two
Encoding: 50 50 35
Width: 1000
VWidth: 0
Flags: H
LayerCount: 2
Fore
SplineSet
250 675 m 1
 250 800 l 1
 500 800 l 1
 750 800 l 1
 750 675 l 1
 750 550 l 1
 875 550 l 1
 1000 550 l 1
 1000 425 l 1
 1000 300 l 1
 875 300 l 1
 750 300 l 1
 750 175 l 1
 750 50 l 1
 875 50 l 1
 1000 50 l 1
 1000 -75 l 1
 1000 -200 l 1
 625 -200 l 1
 250 -200 l 1
 250 50 l 1
 250 300 l 1
 500 300 l 1
 750 300 l 1
 750 425 l 1
 750 550 l 1
 500 550 l 1
 250 550 l 1
 250 675 l 1
EndSplineSet
EndChar

StartChar: three
Encoding: 51 51 36
Width: 1000
VWidth: 0
Flags: H
LayerCount: 2
Fore
SplineSet
0 675 m 1
 0 800 l 1
 250 800 l 1
 500 800 l 1
 500 675 l 1
 500 550 l 1
 625 550 l 1
 750 550 l 1
 750 300 l 1
 750 50 l 1
 625 50 l 1
 500 50 l 1
 500 -75 l 1
 500 -200 l 1
 250 -200 l 1
 0 -200 l 1
 0 -75 l 1
 0 50 l 1
 250 50 l 1
 500 50 l 1
 500 175 l 1
 500 300 l 1
 375 300 l 1
 250 300 l 1
 250 425 l 1
 250 550 l 1
 125 550 l 1
 0 550 l 1
 0 675 l 1
EndSplineSet
EndChar

StartChar: four
Encoding: 52 52 37
Width: 1000
VWidth: 0
Flags: H
LayerCount: 2
Fore
SplineSet
0 550 m 1
 0 800 l 1
 125 800 l 1
 250 800 l 1
 250 675 l 1
 250 550 l 1
 375 550 l 1
 500 550 l 1
 500 675 l 1
 500 800 l 1
 625 800 l 1
 750 800 l 1
 750 300 l 1
 750 -200 l 1
 625 -200 l 1
 500 -200 l 1
 500 50 l 1
 500 300 l 1
 250 300 l 1
 0 300 l 1
 0 550 l 1
EndSplineSet
EndChar

StartChar: five
Encoding: 53 53 38
Width: 1000
VWidth: 0
Flags: H
LayerCount: 2
Fore
SplineSet
0 550 m 1
 0 800 l 1
 375 800 l 1
 750 800 l 1
 750 675 l 1
 750 550 l 1
 500 550 l 1
 250 550 l 1
 250 425 l 1
 250 300 l 1
 500 300 l 1
 750 300 l 1
 750 50 l 1
 750 -200 l 1
 375 -200 l 1
 0 -200 l 1
 0 -75 l 1
 0 50 l 1
 125 50 l 1
 250 50 l 1
 250 175 l 1
 250 300 l 1
 125 300 l 1
 0 300 l 1
 0 550 l 1
EndSplineSet
EndChar

StartChar: six
Encoding: 54 54 39
Width: 1000
VWidth: 0
Flags: H
LayerCount: 2
Fore
SplineSet
250 425 m 1
 250 800 l 1
 375 800 l 1
 500 800 l 1
 500 675 l 1
 500 550 l 1
 750 550 l 1
 1000 550 l 1
 1000 175 l 1
 1000 -200 l 1
 750 -200 l 1
 500 -200 l 1
 500 -75 l 1
 500 50 l 1
 375 50 l 1
 250 50 l 1
 250 425 l 1
750 175 m 1
 750 300 l 1
 625 300 l 1
 500 300 l 1
 500 175 l 1
 500 50 l 1
 625 50 l 1
 750 50 l 1
 750 175 l 1
EndSplineSet
EndChar

StartChar: seven
Encoding: 55 55 40
Width: 1000
VWidth: 0
Flags: H
LayerCount: 2
Fore
SplineSet
0 675 m 1
 0 800 l 1
 250 800 l 1
 500 800 l 1
 500 675 l 1
 500 550 l 1
 625 550 l 1
 750 550 l 1
 750 175 l 1
 750 -200 l 1
 625 -200 l 1
 500 -200 l 1
 500 175 l 1
 500 550 l 1
 250 550 l 1
 0 550 l 1
 0 675 l 1
EndSplineSet
EndChar

StartChar: eight
Encoding: 56 56 41
Width: 1000
VWidth: 0
Flags: H
LayerCount: 2
Fore
SplineSet
0 300 m 1
 0 800 l 1
 375 800 l 1
 750 800 l 1
 750 300 l 1
 750 -200 l 1
 375 -200 l 1
 0 -200 l 1
 0 300 l 1
500 425 m 1
 500 550 l 1
 375 550 l 1
 250 550 l 1
 250 425 l 1
 250 300 l 1
 375 300 l 1
 500 300 l 1
 500 425 l 1
EndSplineSet
EndChar

StartChar: nine
Encoding: 57 57 42
Width: 1000
VWidth: 0
Flags: H
LayerCount: 2
Fore
SplineSet
0 550 m 1
 0 800 l 1
 250 800 l 1
 500 800 l 1
 500 675 l 1
 500 550 l 1
 625 550 l 1
 750 550 l 1
 750 175 l 1
 750 -200 l 1
 625 -200 l 1
 500 -200 l 1
 500 -75 l 1
 500 50 l 1
 375 50 l 1
 250 50 l 1
 250 175 l 1
 250 300 l 1
 125 300 l 1
 0 300 l 1
 0 550 l 1
500 425 m 1
 500 550 l 1
 375 550 l 1
 250 550 l 1
 250 425 l 1
 250 300 l 1
 375 300 l 1
 500 300 l 1
 500 425 l 1
EndSplineSet
EndChar

StartChar: colon
Encoding: 58 58 43
Width: 1000
VWidth: 0
Flags: H
LayerCount: 2
Fore
SplineSet
250 675 m 1
 250 800 l 1
 375 800 l 1
 500 800 l 1
 500 675 l 1
 500 550 l 1
 375 550 l 1
 250 550 l 1
 250 675 l 1
250 175 m 1
 250 300 l 1
 375 300 l 1
 500 300 l 1
 500 175 l 1
 500 50 l 1
 375 50 l 1
 250 50 l 1
 250 175 l 1
EndSplineSet
EndChar

StartChar: semicolon
Encoding: 59 59 44
Width: 1000
VWidth: 0
Flags: H
LayerCount: 2
Fore
SplineSet
250 675 m 1
 250 800 l 1
 375 800 l 1
 500 800 l 1
 500 675 l 1
 500 550 l 1
 375 550 l 1
 250 550 l 1
 250 675 l 1
250 175 m 1
 250 300 l 1
 375 300 l 1
 500 300 l 1
 500 175 l 1
 500 50 l 1
 375 50 l 1
 250 50 l 1
 250 -75 l 1
 250 -200 l 1
 125 -200 l 1
 0 -200 l 1
 0 -75 l 1
 0 50 l 1
 125 50 l 1
 250 50 l 1
 250 175 l 1
EndSplineSet
EndChar

StartChar: less
Encoding: 60 60 45
Width: 1000
VWidth: 0
Flags: H
LayerCount: 2
Fore
SplineSet
500 425 m 1
 500 550 l 1
 625 550 l 1
 750 550 l 1
 750 425 l 1
 750 300 l 1
 625 300 l 1
 500 300 l 1
 500 175 l 1
 500 50 l 1
 625 50 l 1
 750 50 l 1
 750 -75 l 1
 750 -200 l 1
 625 -200 l 1
 500 -200 l 1
 500 -75 l 1
 500 50 l 1
 375 50 l 1
 250 50 l 1
 250 175 l 1
 250 300 l 1
 375 300 l 1
 500 300 l 1
 500 425 l 1
EndSplineSet
EndChar

StartChar: equal
Encoding: 61 61 46
Width: 1000
VWidth: 0
Flags: H
LayerCount: 2
Fore
SplineSet
0 425 m 1
 0 550 l 1
 375 550 l 1
 750 550 l 1
 750 425 l 1
 750 300 l 1
 375 300 l 1
 0 300 l 1
 0 425 l 1
0 -75 m 1
 0 50 l 1
 375 50 l 1
 750 50 l 1
 750 -75 l 1
 750 -200 l 1
 375 -200 l 1
 0 -200 l 1
 0 -75 l 1
EndSplineSet
EndChar

StartChar: greater
Encoding: 62 62 47
Width: 1000
VWidth: 0
Flags: H
LayerCount: 2
Fore
SplineSet
250 425 m 1
 250 550 l 1
 375 550 l 1
 500 550 l 1
 500 425 l 1
 500 300 l 1
 625 300 l 1
 750 300 l 1
 750 175 l 1
 750 50 l 1
 625 50 l 1
 500 50 l 1
 500 -75 l 1
 500 -200 l 1
 375 -200 l 1
 250 -200 l 1
 250 -75 l 1
 250 50 l 1
 375 50 l 1
 500 50 l 1
 500 175 l 1
 500 300 l 1
 375 300 l 1
 250 300 l 1
 250 425 l 1
EndSplineSet
EndChar

StartChar: question
Encoding: 63 63 48
Width: 1000
VWidth: 0
Flags: H
LayerCount: 2
Fore
SplineSet
0 675 m 1
 0 800 l 1
 375 800 l 1
 750 800 l 1
 750 425 l 1
 750 50 l 1
 625 50 l 1
 500 50 l 1
 500 -75 l 1
 500 -200 l 1
 375 -200 l 1
 250 -200 l 1
 250 50 l 1
 250 300 l 1
 375 300 l 1
 500 300 l 1
 500 425 l 1
 500 550 l 1
 250 550 l 1
 0 550 l 1
 0 675 l 1
EndSplineSet
EndChar

StartChar: at
Encoding: 64 64 49
Width: 1000
VWidth: 0
Flags: H
LayerCount: 2
Fore
SplineSet
250 675 m 1
 250 800 l 1
 500 800 l 1
 750 800 l 1
 750 675 l 1
 750 550 l 1
 875 550 l 1
 1000 550 l 1
 1000 425 l 1
 1000 300 l 1
 875 300 l 1
 750 300 l 1
 750 175 l 1
 750 50 l 1
 875 50 l 1
 1000 50 l 1
 1000 -75 l 1
 1000 -200 l 1
 625 -200 l 1
 250 -200 l 1
 250 -75 l 1
 250 50 l 1
 125 50 l 1
 0 50 l 1
 0 300 l 1
 0 550 l 1
 125 550 l 1
 250 550 l 1
 250 675 l 1
750 425 m 1
 750 550 l 1
 500 550 l 1
 250 550 l 1
 250 300 l 1
 250 50 l 1
 375 50 l 1
 500 50 l 1
 500 175 l 1
 500 300 l 1
 625 300 l 1
 750 300 l 1
 750 425 l 1
EndSplineSet
EndChar

StartChar: A
Encoding: 65 65 50
Width: 1000
VWidth: 0
Flags: H
LayerCount: 2
Fore
SplineSet
250 675 m 1
 250 800 l 1
 375 800 l 1
 500 800 l 1
 500 675 l 1
 500 550 l 1
 625 550 l 1
 750 550 l 1
 750 175 l 1
 750 -200 l 1
 625 -200 l 1
 500 -200 l 1
 500 -75 l 1
 500 50 l 1
 375 50 l 1
 250 50 l 1
 250 -75 l 1
 250 -200 l 1
 125 -200 l 1
 0 -200 l 1
 0 175 l 1
 0 550 l 1
 125 550 l 1
 250 550 l 1
 250 675 l 1
500 425 m 1
 500 550 l 1
 375 550 l 1
 250 550 l 1
 250 425 l 1
 250 300 l 1
 375 300 l 1
 500 300 l 1
 500 425 l 1
EndSplineSet
EndChar

StartChar: B
Encoding: 66 66 51
Width: 1000
VWidth: 0
Flags: H
LayerCount: 2
Fore
SplineSet
250 300 m 1
 250 800 l 1
 500 800 l 1
 750 800 l 1
 750 675 l 1
 750 550 l 1
 875 550 l 1
 1000 550 l 1
 1000 300 l 1
 1000 50 l 1
 875 50 l 1
 750 50 l 1
 750 -75 l 1
 750 -200 l 1
 500 -200 l 1
 250 -200 l 1
 250 300 l 1
750 175 m 1
 750 300 l 1
 625 300 l 1
 500 300 l 1
 500 175 l 1
 500 50 l 1
 625 50 l 1
 750 50 l 1
 750 175 l 1
EndSplineSet
EndChar

StartChar: C
Encoding: 67 67 52
Width: 1000
VWidth: 0
Flags: H
LayerCount: 2
Fore
SplineSet
500 675 m 1
 500 800 l 1
 750 800 l 1
 1000 800 l 1
 1000 675 l 1
 1000 550 l 1
 750 550 l 1
 500 550 l 1
 500 300 l 1
 500 50 l 1
 750 50 l 1
 1000 50 l 1
 1000 -75 l 1
 1000 -200 l 1
 750 -200 l 1
 500 -200 l 1
 500 -75 l 1
 500 50 l 1
 375 50 l 1
 250 50 l 1
 250 300 l 1
 250 550 l 1
 375 550 l 1
 500 550 l 1
 500 675 l 1
EndSplineSet
EndChar

StartChar: D
Encoding: 68 68 53
Width: 1000
VWidth: 0
Flags: H
LayerCount: 2
Fore
SplineSet
250 300 m 1
 250 800 l 1
 500 800 l 1
 750 800 l 1
 750 675 l 1
 750 550 l 1
 875 550 l 1
 1000 550 l 1
 1000 300 l 1
 1000 50 l 1
 875 50 l 1
 750 50 l 1
 750 -75 l 1
 750 -200 l 1
 500 -200 l 1
 250 -200 l 1
 250 300 l 1
750 300 m 1
 750 550 l 1
 625 550 l 1
 500 550 l 1
 500 300 l 1
 500 50 l 1
 625 50 l 1
 750 50 l 1
 750 300 l 1
EndSplineSet
EndChar

StartChar: E
Encoding: 69 69 54
Width: 1000
VWidth: 0
Flags: H
LayerCount: 2
Fore
SplineSet
500 675 m 1
 500 800 l 1
 750 800 l 1
 1000 800 l 1
 1000 675 l 1
 1000 550 l 1
 875 550 l 1
 750 550 l 1
 750 425 l 1
 750 300 l 1
 625 300 l 1
 500 300 l 1
 500 175 l 1
 500 50 l 1
 750 50 l 1
 1000 50 l 1
 1000 -75 l 1
 1000 -200 l 1
 625 -200 l 1
 250 -200 l 1
 250 175 l 1
 250 550 l 1
 375 550 l 1
 500 550 l 1
 500 675 l 1
EndSplineSet
EndChar

StartChar: F
Encoding: 70 70 55
Width: 1000
VWidth: 0
Flags: H
LayerCount: 2
Fore
SplineSet
250 300 m 1
 250 800 l 1
 625 800 l 1
 1000 800 l 1
 1000 675 l 1
 1000 550 l 1
 750 550 l 1
 500 550 l 1
 500 425 l 1
 500 300 l 1
 625 300 l 1
 750 300 l 1
 750 175 l 1
 750 50 l 1
 625 50 l 1
 500 50 l 1
 500 -75 l 1
 500 -200 l 1
 375 -200 l 1
 250 -200 l 1
 250 300 l 1
EndSplineSet
EndChar

StartChar: G
Encoding: 71 71 56
Width: 1000
VWidth: 0
Flags: H
LayerCount: 2
Fore
SplineSet
250 300 m 1
 250 800 l 1
 625 800 l 1
 1000 800 l 1
 1000 675 l 1
 1000 550 l 1
 750 550 l 1
 500 550 l 1
 500 300 l 1
 500 50 l 1
 625 50 l 1
 750 50 l 1
 750 175 l 1
 750 300 l 1
 875 300 l 1
 1000 300 l 1
 1000 50 l 1
 1000 -200 l 1
 625 -200 l 1
 250 -200 l 1
 250 300 l 1
EndSplineSet
EndChar

StartChar: H
Encoding: 72 72 57
Width: 1000
VWidth: 0
Flags: H
LayerCount: 2
Fore
SplineSet
0 300 m 1
 0 800 l 1
 125 800 l 1
 250 800 l 1
 250 550 l 1
 250 300 l 1
 375 300 l 1
 500 300 l 1
 500 550 l 1
 500 800 l 1
 625 800 l 1
 750 800 l 1
 750 300 l 1
 750 -200 l 1
 625 -200 l 1
 500 -200 l 1
 500 -75 l 1
 500 50 l 1
 375 50 l 1
 250 50 l 1
 250 -75 l 1
 250 -200 l 1
 125 -200 l 1
 0 -200 l 1
 0 300 l 1
EndSplineSet
EndChar

StartChar: I
Encoding: 73 73 58
Width: 1000
VWidth: 0
Flags: H
LayerCount: 2
Fore
SplineSet
0 675 m 1
 0 800 l 1
 375 800 l 1
 750 800 l 1
 750 675 l 1
 750 550 l 1
 625 550 l 1
 500 550 l 1
 500 300 l 1
 500 50 l 1
 625 50 l 1
 750 50 l 1
 750 -75 l 1
 750 -200 l 1
 375 -200 l 1
 0 -200 l 1
 0 -75 l 1
 0 50 l 1
 125 50 l 1
 250 50 l 1
 250 300 l 1
 250 550 l 1
 125 550 l 1
 0 550 l 1
 0 675 l 1
EndSplineSet
EndChar

StartChar: J
Encoding: 74 74 59
Width: 1000
VWidth: 0
Flags: H
LayerCount: 2
Fore
SplineSet
500 425 m 1
 500 800 l 1
 625 800 l 1
 750 800 l 1
 750 300 l 1
 750 -200 l 1
 375 -200 l 1
 0 -200 l 1
 0 50 l 1
 0 300 l 1
 125 300 l 1
 250 300 l 1
 250 175 l 1
 250 50 l 1
 375 50 l 1
 500 50 l 1
 500 425 l 1
EndSplineSet
EndChar

StartChar: K
Encoding: 75 75 60
Width: 1000
VWidth: 0
Flags: H
LayerCount: 2
Fore
SplineSet
250 300 m 1
 250 800 l 1
 375 800 l 1
 500 800 l 1
 500 675 l 1
 500 550 l 1
 625 550 l 1
 750 550 l 1
 750 675 l 1
 750 800 l 1
 875 800 l 1
 1000 800 l 1
 1000 675 l 1
 1000 550 l 1
 875 550 l 1
 750 550 l 1
 750 300 l 1
 750 50 l 1
 875 50 l 1
 1000 50 l 1
 1000 -75 l 1
 1000 -200 l 1
 875 -200 l 1
 750 -200 l 1
 750 -75 l 1
 750 50 l 1
 625 50 l 1
 500 50 l 1
 500 -75 l 1
 500 -200 l 1
 375 -200 l 1
 250 -200 l 1
 250 300 l 1
EndSplineSet
EndChar

StartChar: L
Encoding: 76 76 61
Width: 1000
VWidth: 0
Flags: H
LayerCount: 2
Fore
SplineSet
250 300 m 1
 250 800 l 1
 375 800 l 1
 500 800 l 1
 500 425 l 1
 500 50 l 1
 750 50 l 1
 1000 50 l 1
 1000 -75 l 1
 1000 -200 l 1
 625 -200 l 1
 250 -200 l 1
 250 300 l 1
EndSplineSet
EndChar

StartChar: M
Encoding: 77 77 62
Width: 1000
VWidth: 0
Flags: H
LayerCount: 2
Fore
SplineSet
0 300 m 1
 0 800 l 1
 125 800 l 1
 250 800 l 1
 250 675 l 1
 250 550 l 1
 500 550 l 1
 750 550 l 1
 750 675 l 1
 750 800 l 1
 875 800 l 1
 1000 800 l 1
 1000 300 l 1
 1000 -200 l 1
 875 -200 l 1
 750 -200 l 1
 750 50 l 1
 750 300 l 1
 500 300 l 1
 250 300 l 1
 250 50 l 1
 250 -200 l 1
 125 -200 l 1
 0 -200 l 1
 0 300 l 1
EndSplineSet
EndChar

StartChar: N
Encoding: 78 78 63
Width: 1000
VWidth: 0
Flags: H
LayerCount: 2
Fore
SplineSet
0 300 m 1
 0 800 l 1
 375 800 l 1
 750 800 l 1
 750 300 l 1
 750 -200 l 1
 625 -200 l 1
 500 -200 l 1
 500 175 l 1
 500 550 l 1
 375 550 l 1
 250 550 l 1
 250 175 l 1
 250 -200 l 1
 125 -200 l 1
 0 -200 l 1
 0 300 l 1
EndSplineSet
EndChar

StartChar: O
Encoding: 79 79 64
Width: 1000
VWidth: 0
Flags: H
LayerCount: 2
Fore
SplineSet
250 675 m 1
 250 800 l 1
 500 800 l 1
 750 800 l 1
 750 675 l 1
 750 550 l 1
 875 550 l 1
 1000 550 l 1
 1000 300 l 1
 1000 50 l 1
 875 50 l 1
 750 50 l 1
 750 -75 l 1
 750 -200 l 1
 500 -200 l 1
 250 -200 l 1
 250 -75 l 1
 250 50 l 1
 125 50 l 1
 0 50 l 1
 0 300 l 1
 0 550 l 1
 125 550 l 1
 250 550 l 1
 250 675 l 1
750 300 m 1
 750 550 l 1
 500 550 l 1
 250 550 l 1
 250 300 l 1
 250 50 l 1
 500 50 l 1
 750 50 l 1
 750 300 l 1
EndSplineSet
EndChar

StartChar: P
Encoding: 80 80 65
Width: 1000
VWidth: 0
Flags: H
LayerCount: 2
Fore
SplineSet
250 300 m 1
 250 800 l 1
 500 800 l 1
 750 800 l 1
 750 675 l 1
 750 550 l 1
 875 550 l 1
 1000 550 l 1
 1000 425 l 1
 1000 300 l 1
 875 300 l 1
 750 300 l 1
 750 175 l 1
 750 50 l 1
 625 50 l 1
 500 50 l 1
 500 -75 l 1
 500 -200 l 1
 375 -200 l 1
 250 -200 l 1
 250 300 l 1
750 425 m 1
 750 550 l 1
 625 550 l 1
 500 550 l 1
 500 425 l 1
 500 300 l 1
 625 300 l 1
 750 300 l 1
 750 425 l 1
EndSplineSet
EndChar

StartChar: Q
Encoding: 81 81 66
Width: 1000
VWidth: 0
Flags: H
LayerCount: 2
Fore
SplineSet
0 425 m 1
 0 800 l 1
 250 800 l 1
 500 800 l 1
 500 675 l 1
 500 550 l 1
 625 550 l 1
 750 550 l 1
 750 300 l 1
 750 50 l 1
 875 50 l 1
 1000 50 l 1
 1000 -75 l 1
 1000 -200 l 1
 625 -200 l 1
 250 -200 l 1
 250 -75 l 1
 250 50 l 1
 125 50 l 1
 0 50 l 1
 0 425 l 1
500 300 m 1
 500 550 l 1
 375 550 l 1
 250 550 l 1
 250 300 l 1
 250 50 l 1
 375 50 l 1
 500 50 l 1
 500 300 l 1
EndSplineSet
EndChar

StartChar: R
Encoding: 82 82 67
Width: 1000
VWidth: 0
Flags: H
LayerCount: 2
Fore
SplineSet
250 300 m 1
 250 800 l 1
 500 800 l 1
 750 800 l 1
 750 675 l 1
 750 550 l 1
 875 550 l 1
 1000 550 l 1
 1000 425 l 1
 1000 300 l 1
 875 300 l 1
 750 300 l 1
 750 175 l 1
 750 50 l 1
 875 50 l 1
 1000 50 l 1
 1000 -75 l 1
 1000 -200 l 1
 875 -200 l 1
 750 -200 l 1
 750 -75 l 1
 750 50 l 1
 625 50 l 1
 500 50 l 1
 500 -75 l 1
 500 -200 l 1
 375 -200 l 1
 250 -200 l 1
 250 300 l 1
750 425 m 1
 750 550 l 1
 625 550 l 1
 500 550 l 1
 500 425 l 1
 500 300 l 1
 625 300 l 1
 750 300 l 1
 750 425 l 1
EndSplineSet
EndChar

StartChar: S
Encoding: 83 83 68
Width: 1000
VWidth: 0
Flags: H
LayerCount: 2
Fore
SplineSet
250 675 m 1
 250 800 l 1
 500 800 l 1
 750 800 l 1
 750 675 l 1
 750 550 l 1
 625 550 l 1
 500 550 l 1
 500 425 l 1
 500 300 l 1
 625 300 l 1
 750 300 l 1
 750 175 l 1
 750 50 l 1
 625 50 l 1
 500 50 l 1
 500 -75 l 1
 500 -200 l 1
 250 -200 l 1
 0 -200 l 1
 0 -75 l 1
 0 50 l 1
 125 50 l 1
 250 50 l 1
 250 175 l 1
 250 300 l 1
 125 300 l 1
 0 300 l 1
 0 425 l 1
 0 550 l 1
 125 550 l 1
 250 550 l 1
 250 675 l 1
EndSplineSet
EndChar

StartChar: T
Encoding: 84 84 69
Width: 1000
VWidth: 0
Flags: H
LayerCount: 2
Fore
SplineSet
0 675 m 1
 0 800 l 1
 375 800 l 1
 750 800 l 1
 750 675 l 1
 750 550 l 1
 625 550 l 1
 500 550 l 1
 500 175 l 1
 500 -200 l 1
 375 -200 l 1
 250 -200 l 1
 250 175 l 1
 250 550 l 1
 125 550 l 1
 0 550 l 1
 0 675 l 1
EndSplineSet
EndChar

StartChar: U
Encoding: 85 85 70
Width: 1000
VWidth: 0
Flags: H
LayerCount: 2
Fore
SplineSet
0 425 m 1
 0 800 l 1
 125 800 l 1
 250 800 l 1
 250 425 l 1
 250 50 l 1
 375 50 l 1
 500 50 l 1
 500 425 l 1
 500 800 l 1
 625 800 l 1
 750 800 l 1
 750 300 l 1
 750 -200 l 1
 500 -200 l 1
 250 -200 l 1
 250 -75 l 1
 250 50 l 1
 125 50 l 1
 0 50 l 1
 0 425 l 1
EndSplineSet
EndChar

StartChar: V
Encoding: 86 86 71
Width: 1000
VWidth: 0
Flags: H
LayerCount: 2
Fore
SplineSet
0 425 m 1
 0 800 l 1
 125 800 l 1
 250 800 l 1
 250 550 l 1
 250 300 l 1
 375 300 l 1
 500 300 l 1
 500 550 l 1
 500 800 l 1
 625 800 l 1
 750 800 l 1
 750 425 l 1
 750 50 l 1
 625 50 l 1
 500 50 l 1
 500 -75 l 1
 500 -200 l 1
 375 -200 l 1
 250 -200 l 1
 250 -75 l 1
 250 50 l 1
 125 50 l 1
 0 50 l 1
 0 425 l 1
EndSplineSet
EndChar

StartChar: W
Encoding: 87 87 72
Width: 1000
VWidth: 0
Flags: H
LayerCount: 2
Fore
SplineSet
0 425 m 1
 0 800 l 1
 125 800 l 1
 250 800 l 1
 250 550 l 1
 250 300 l 1
 500 300 l 1
 750 300 l 1
 750 550 l 1
 750 800 l 1
 875 800 l 1
 1000 800 l 1
 1000 425 l 1
 1000 50 l 1
 875 50 l 1
 750 50 l 1
 750 -75 l 1
 750 -200 l 1
 500 -200 l 1
 250 -200 l 1
 250 -75 l 1
 250 50 l 1
 125 50 l 1
 0 50 l 1
 0 425 l 1
EndSplineSet
EndChar

StartChar: X
Encoding: 88 88 73
Width: 1000
VWidth: 0
Flags: H
LayerCount: 2
Fore
SplineSet
0 550 m 1
 0 800 l 1
 125 800 l 1
 250 800 l 1
 250 550 l 1
 250 300 l 1
 375 300 l 1
 500 300 l 1
 500 550 l 1
 500 800 l 1
 625 800 l 1
 750 800 l 1
 750 550 l 1
 750 300 l 1
 625 300 l 1
 500 300 l 1
 500 175 l 1
 500 50 l 1
 625 50 l 1
 750 50 l 1
 750 -75 l 1
 750 -200 l 1
 625 -200 l 1
 500 -200 l 1
 500 -75 l 1
 500 50 l 1
 375 50 l 1
 250 50 l 1
 250 -75 l 1
 250 -200 l 1
 125 -200 l 1
 0 -200 l 1
 0 -75 l 1
 0 50 l 1
 125 50 l 1
 250 50 l 1
 250 175 l 1
 250 300 l 1
 125 300 l 1
 0 300 l 1
 0 550 l 1
EndSplineSet
EndChar

StartChar: Y
Encoding: 89 89 74
Width: 1000
VWidth: 0
Flags: H
LayerCount: 2
Fore
SplineSet
0 550 m 1
 0 800 l 1
 125 800 l 1
 250 800 l 1
 250 550 l 1
 250 300 l 1
 375 300 l 1
 500 300 l 1
 500 550 l 1
 500 800 l 1
 625 800 l 1
 750 800 l 1
 750 550 l 1
 750 300 l 1
 625 300 l 1
 500 300 l 1
 500 50 l 1
 500 -200 l 1
 375 -200 l 1
 250 -200 l 1
 250 50 l 1
 250 300 l 1
 125 300 l 1
 0 300 l 1
 0 550 l 1
EndSplineSet
EndChar

StartChar: Z
Encoding: 90 90 75
Width: 1000
VWidth: 0
Flags: H
LayerCount: 2
Fore
SplineSet
0 675 m 1
 0 800 l 1
 500 800 l 1
 1000 800 l 1
 1000 675 l 1
 1000 550 l 1
 875 550 l 1
 750 550 l 1
 750 425 l 1
 750 300 l 1
 625 300 l 1
 500 300 l 1
 500 175 l 1
 500 50 l 1
 750 50 l 1
 1000 50 l 1
 1000 -75 l 1
 1000 -200 l 1
 500 -200 l 1
 0 -200 l 1
 0 -75 l 1
 0 50 l 1
 125 50 l 1
 250 50 l 1
 250 175 l 1
 250 300 l 1
 375 300 l 1
 500 300 l 1
 500 425 l 1
 500 550 l 1
 250 550 l 1
 0 550 l 1
 0 675 l 1
EndSplineSet
EndChar

StartChar: bracketleft
Encoding: 91 91 76
Width: 1000
VWidth: 0
Flags: H
LayerCount: 2
Fore
SplineSet
250 300 m 1
 250 800 l 1
 500 800 l 1
 750 800 l 1
 750 675 l 1
 750 550 l 1
 625 550 l 1
 500 550 l 1
 500 300 l 1
 500 50 l 1
 625 50 l 1
 750 50 l 1
 750 -75 l 1
 750 -200 l 1
 500 -200 l 1
 250 -200 l 1
 250 300 l 1
EndSplineSet
EndChar

StartChar: backslash
Encoding: 92 92 77
Width: 1000
VWidth: 0
Flags: H
LayerCount: 2
Fore
SplineSet
0 675 m 1
 0 800 l 1
 125 800 l 1
 250 800 l 1
 250 675 l 1
 250 550 l 1
 375 550 l 1
 500 550 l 1
 500 425 l 1
 500 300 l 1
 625 300 l 1
 750 300 l 1
 750 175 l 1
 750 50 l 1
 875 50 l 1
 1000 50 l 1
 1000 -75 l 1
 1000 -200 l 1
 875 -200 l 1
 750 -200 l 1
 750 -75 l 1
 750 50 l 1
 625 50 l 1
 500 50 l 1
 500 175 l 1
 500 300 l 1
 375 300 l 1
 250 300 l 1
 250 425 l 1
 250 550 l 1
 125 550 l 1
 0 550 l 1
 0 675 l 1
EndSplineSet
EndChar

StartChar: bracketright
Encoding: 93 93 78
Width: 1000
VWidth: 0
Flags: H
LayerCount: 2
Fore
SplineSet
250 675 m 1
 250 800 l 1
 500 800 l 1
 750 800 l 1
 750 300 l 1
 750 -200 l 1
 500 -200 l 1
 250 -200 l 1
 250 -75 l 1
 250 50 l 1
 375 50 l 1
 500 50 l 1
 500 300 l 1
 500 550 l 1
 375 550 l 1
 250 550 l 1
 250 675 l 1
EndSplineSet
EndChar

StartChar: asciicircum
Encoding: 94 94 79
Width: 1000
VWidth: 0
Flags: H
LayerCount: 2
Fore
SplineSet
250 675 m 1
 250 800 l 1
 375 800 l 1
 500 800 l 1
 500 675 l 1
 500 550 l 1
 625 550 l 1
 750 550 l 1
 750 425 l 1
 750 300 l 1
 625 300 l 1
 500 300 l 1
 500 425 l 1
 500 550 l 1
 375 550 l 1
 250 550 l 1
 250 425 l 1
 250 300 l 1
 125 300 l 1
 0 300 l 1
 0 425 l 1
 0 550 l 1
 125 550 l 1
 250 550 l 1
 250 675 l 1
EndSplineSet
EndChar

StartChar: underscore
Encoding: 95 95 80
Width: 1000
VWidth: 0
Flags: H
LayerCount: 2
Fore
SplineSet
0 -75 m 1
 0 50 l 1
 500 50 l 1
 1000 50 l 1
 1000 -75 l 1
 1000 -200 l 1
 500 -200 l 1
 0 -200 l 1
 0 -75 l 1
EndSplineSet
EndChar

StartChar: grave
Encoding: 96 96 81
Width: 1000
VWidth: 0
Flags: H
LayerCount: 2
Fore
SplineSet
250 675 m 1
 250 800 l 1
 375 800 l 1
 500 800 l 1
 500 675 l 1
 500 550 l 1
 625 550 l 1
 750 550 l 1
 750 425 l 1
 750 300 l 1
 625 300 l 1
 500 300 l 1
 500 425 l 1
 500 550 l 1
 375 550 l 1
 250 550 l 1
 250 675 l 1
EndSplineSet
EndChar

StartChar: a
Encoding: 97 97 82
Width: 1000
VWidth: 0
Flags: H
LayerCount: 2
Fore
SplineSet
250 425 m 1
 250 550 l 1
 500 550 l 1
 750 550 l 1
 750 175 l 1
 750 -200 l 1
 500 -200 l 1
 250 -200 l 1
 250 -75 l 1
 250 50 l 1
 125 50 l 1
 0 50 l 1
 0 175 l 1
 0 300 l 1
 125 300 l 1
 250 300 l 1
 250 425 l 1
500 175 m 1
 500 300 l 1
 375 300 l 1
 250 300 l 1
 250 175 l 1
 250 50 l 1
 375 50 l 1
 500 50 l 1
 500 175 l 1
EndSplineSet
EndChar

StartChar: b
Encoding: 98 98 83
Width: 1000
VWidth: 0
Flags: H
LayerCount: 2
Fore
SplineSet
250 300 m 1
 250 800 l 1
 375 800 l 1
 500 800 l 1
 500 675 l 1
 500 550 l 1
 625 550 l 1
 750 550 l 1
 750 425 l 1
 750 300 l 1
 875 300 l 1
 1000 300 l 1
 1000 175 l 1
 1000 50 l 1
 875 50 l 1
 750 50 l 1
 750 -75 l 1
 750 -200 l 1
 500 -200 l 1
 250 -200 l 1
 250 300 l 1
750 175 m 1
 750 300 l 1
 625 300 l 1
 500 300 l 1
 500 175 l 1
 500 50 l 1
 625 50 l 1
 750 50 l 1
 750 175 l 1
EndSplineSet
EndChar

StartChar: c
Encoding: 99 99 84
Width: 1000
VWidth: 0
Flags: H
LayerCount: 2
Fore
SplineSet
250 425 m 1
 250 550 l 1
 500 550 l 1
 750 550 l 1
 750 425 l 1
 750 300 l 1
 500 300 l 1
 250 300 l 1
 250 175 l 1
 250 50 l 1
 500 50 l 1
 750 50 l 1
 750 -75 l 1
 750 -200 l 1
 500 -200 l 1
 250 -200 l 1
 250 -75 l 1
 250 50 l 1
 125 50 l 1
 0 50 l 1
 0 175 l 1
 0 300 l 1
 125 300 l 1
 250 300 l 1
 250 425 l 1
EndSplineSet
EndChar

StartChar: d
Encoding: 100 100 85
Width: 1000
VWidth: 0
Flags: H
LayerCount: 2
Fore
SplineSet
500 675 m 1
 500 800 l 1
 625 800 l 1
 750 800 l 1
 750 300 l 1
 750 -200 l 1
 500 -200 l 1
 250 -200 l 1
 250 -75 l 1
 250 50 l 1
 125 50 l 1
 0 50 l 1
 0 175 l 1
 0 300 l 1
 125 300 l 1
 250 300 l 1
 250 425 l 1
 250 550 l 1
 375 550 l 1
 500 550 l 1
 500 675 l 1
500 175 m 1
 500 300 l 1
 375 300 l 1
 250 300 l 1
 250 175 l 1
 250 50 l 1
 375 50 l 1
 500 50 l 1
 500 175 l 1
EndSplineSet
EndChar

StartChar: e
Encoding: 101 101 86
Width: 1000
VWidth: 0
Flags: H
LayerCount: 2
Fore
SplineSet
250 675 m 1
 250 800 l 1
 500 800 l 1
 750 800 l 1
 750 550 l 1
 750 300 l 1
 625 300 l 1
 500 300 l 1
 500 175 l 1
 500 50 l 1
 625 50 l 1
 750 50 l 1
 750 -75 l 1
 750 -200 l 1
 500 -200 l 1
 250 -200 l 1
 250 -75 l 1
 250 50 l 1
 125 50 l 1
 0 50 l 1
 0 300 l 1
 0 550 l 1
 125 550 l 1
 250 550 l 1
 250 675 l 1
500 425 m 1
 500 550 l 1
 375 550 l 1
 250 550 l 1
 250 425 l 1
 250 300 l 1
 375 300 l 1
 500 300 l 1
 500 425 l 1
EndSplineSet
EndChar

StartChar: f
Encoding: 102 102 87
Width: 1000
VWidth: 0
Flags: H
LayerCount: 2
Fore
SplineSet
500 675 m 1
 500 800 l 1
 625 800 l 1
 750 800 l 1
 750 675 l 1
 750 550 l 1
 625 550 l 1
 500 550 l 1
 500 425 l 1
 500 300 l 1
 625 300 l 1
 750 300 l 1
 750 175 l 1
 750 50 l 1
 625 50 l 1
 500 50 l 1
 500 -75 l 1
 500 -200 l 1
 375 -200 l 1
 250 -200 l 1
 250 175 l 1
 250 550 l 1
 375 550 l 1
 500 550 l 1
 500 675 l 1
EndSplineSet
EndChar

StartChar: g
Encoding: 103 103 88
Width: 1000
VWidth: 0
Flags: H
LayerCount: 2
Fore
SplineSet
250 675 m 1
 250 800 l 1
 500 800 l 1
 750 800 l 1
 750 675 l 1
 750 550 l 1
 500 550 l 1
 250 550 l 1
 250 300 l 1
 250 50 l 1
 375 50 l 1
 500 50 l 1
 500 175 l 1
 500 300 l 1
 625 300 l 1
 750 300 l 1
 750 50 l 1
 750 -200 l 1
 500 -200 l 1
 250 -200 l 1
 250 -75 l 1
 250 50 l 1
 125 50 l 1
 0 50 l 1
 0 300 l 1
 0 550 l 1
 125 550 l 1
 250 550 l 1
 250 675 l 1
EndSplineSet
EndChar

StartChar: h
Encoding: 104 104 89
Width: 1000
VWidth: 0
Flags: H
LayerCount: 2
Fore
SplineSet
250 300 m 1
 250 800 l 1
 375 800 l 1
 500 800 l 1
 500 550 l 1
 500 300 l 1
 750 300 l 1
 1000 300 l 1
 1000 50 l 1
 1000 -200 l 1
 875 -200 l 1
 750 -200 l 1
 750 -75 l 1
 750 50 l 1
 625 50 l 1
 500 50 l 1
 500 -75 l 1
 500 -200 l 1
 375 -200 l 1
 250 -200 l 1
 250 300 l 1
EndSplineSet
EndChar

StartChar: i
Encoding: 105 105 90
Width: 1000
VWidth: 0
Flags: H
LayerCount: 2
Fore
SplineSet
250 675 m 1
 250 800 l 1
 375 800 l 1
 500 800 l 1
 500 675 l 1
 500 550 l 1
 375 550 l 1
 250 550 l 1
 250 675 l 1
250 50 m 1
 250 300 l 1
 375 300 l 1
 500 300 l 1
 500 50 l 1
 500 -200 l 1
 375 -200 l 1
 250 -200 l 1
 250 50 l 1
EndSplineSet
EndChar

StartChar: j
Encoding: 106 106 91
Width: 1000
VWidth: 0
Flags: H
LayerCount: 2
Fore
SplineSet
500 425 m 1
 500 800 l 1
 625 800 l 1
 750 800 l 1
 750 425 l 1
 750 50 l 1
 625 50 l 1
 500 50 l 1
 500 -75 l 1
 500 -200 l 1
 375 -200 l 1
 250 -200 l 1
 250 -75 l 1
 250 50 l 1
 125 50 l 1
 0 50 l 1
 0 175 l 1
 0 300 l 1
 125 300 l 1
 250 300 l 1
 250 175 l 1
 250 50 l 1
 375 50 l 1
 500 50 l 1
 500 425 l 1
EndSplineSet
EndChar

StartChar: k
Encoding: 107 107 92
Width: 1000
VWidth: 0
Flags: H
LayerCount: 2
Fore
SplineSet
250 300 m 1
 250 800 l 1
 375 800 l 1
 500 800 l 1
 500 550 l 1
 500 300 l 1
 625 300 l 1
 750 300 l 1
 750 425 l 1
 750 550 l 1
 875 550 l 1
 1000 550 l 1
 1000 425 l 1
 1000 300 l 1
 875 300 l 1
 750 300 l 1
 750 175 l 1
 750 50 l 1
 875 50 l 1
 1000 50 l 1
 1000 -75 l 1
 1000 -200 l 1
 875 -200 l 1
 750 -200 l 1
 750 -75 l 1
 750 50 l 1
 625 50 l 1
 500 50 l 1
 500 -75 l 1
 500 -200 l 1
 375 -200 l 1
 250 -200 l 1
 250 300 l 1
EndSplineSet
EndChar

StartChar: l
Encoding: 108 108 93
Width: 1000
VWidth: 0
Flags: H
LayerCount: 2
Fore
SplineSet
250 425 m 1
 250 800 l 1
 375 800 l 1
 500 800 l 1
 500 425 l 1
 500 50 l 1
 625 50 l 1
 750 50 l 1
 750 -75 l 1
 750 -200 l 1
 625 -200 l 1
 500 -200 l 1
 500 -75 l 1
 500 50 l 1
 375 50 l 1
 250 50 l 1
 250 425 l 1
EndSplineSet
EndChar

StartChar: m
Encoding: 109 109 94
Width: 1000
VWidth: 0
Flags: H
LayerCount: 2
Fore
SplineSet
0 175 m 1
 0 550 l 1
 125 550 l 1
 250 550 l 1
 250 425 l 1
 250 300 l 1
 625 300 l 1
 1000 300 l 1
 1000 50 l 1
 1000 -200 l 1
 750 -200 l 1
 500 -200 l 1
 500 -75 l 1
 500 50 l 1
 375 50 l 1
 250 50 l 1
 250 -75 l 1
 250 -200 l 1
 125 -200 l 1
 0 -200 l 1
 0 175 l 1
EndSplineSet
EndChar

StartChar: n
Encoding: 110 110 95
Width: 1000
VWidth: 0
Flags: H
LayerCount: 2
Fore
SplineSet
0 175 m 1
 0 550 l 1
 250 550 l 1
 500 550 l 1
 500 425 l 1
 500 300 l 1
 625 300 l 1
 750 300 l 1
 750 50 l 1
 750 -200 l 1
 625 -200 l 1
 500 -200 l 1
 500 50 l 1
 500 300 l 1
 375 300 l 1
 250 300 l 1
 250 50 l 1
 250 -200 l 1
 125 -200 l 1
 0 -200 l 1
 0 175 l 1
EndSplineSet
EndChar

StartChar: o
Encoding: 111 111 96
Width: 1000
VWidth: 0
Flags: H
LayerCount: 2
Fore
SplineSet
250 425 m 1
 250 550 l 1
 375 550 l 1
 500 550 l 1
 500 425 l 1
 500 300 l 1
 625 300 l 1
 750 300 l 1
 750 175 l 1
 750 50 l 1
 625 50 l 1
 500 50 l 1
 500 -75 l 1
 500 -200 l 1
 375 -200 l 1
 250 -200 l 1
 250 -75 l 1
 250 50 l 1
 125 50 l 1
 0 50 l 1
 0 175 l 1
 0 300 l 1
 125 300 l 1
 250 300 l 1
 250 425 l 1
500 175 m 1
 500 300 l 1
 375 300 l 1
 250 300 l 1
 250 175 l 1
 250 50 l 1
 375 50 l 1
 500 50 l 1
 500 175 l 1
EndSplineSet
EndChar

StartChar: p
Encoding: 112 112 97
Width: 1000
VWidth: 0
Flags: H
LayerCount: 2
Fore
SplineSet
500 675 m 1
 500 800 l 1
 625 800 l 1
 750 800 l 1
 750 675 l 1
 750 550 l 1
 875 550 l 1
 1000 550 l 1
 1000 425 l 1
 1000 300 l 1
 875 300 l 1
 750 300 l 1
 750 175 l 1
 750 50 l 1
 625 50 l 1
 500 50 l 1
 500 -75 l 1
 500 -200 l 1
 375 -200 l 1
 250 -200 l 1
 250 175 l 1
 250 550 l 1
 375 550 l 1
 500 550 l 1
 500 675 l 1
750 425 m 1
 750 550 l 1
 625 550 l 1
 500 550 l 1
 500 425 l 1
 500 300 l 1
 625 300 l 1
 750 300 l 1
 750 425 l 1
EndSplineSet
EndChar

StartChar: q
Encoding: 113 113 98
Width: 1000
VWidth: 0
Flags: H
LayerCount: 2
Fore
SplineSet
250 675 m 1
 250 800 l 1
 375 800 l 1
 500 800 l 1
 500 675 l 1
 500 550 l 1
 625 550 l 1
 750 550 l 1
 750 300 l 1
 750 50 l 1
 875 50 l 1
 1000 50 l 1
 1000 -75 l 1
 1000 -200 l 1
 625 -200 l 1
 250 -200 l 1
 250 -75 l 1
 250 50 l 1
 125 50 l 1
 0 50 l 1
 0 300 l 1
 0 550 l 1
 125 550 l 1
 250 550 l 1
 250 675 l 1
500 300 m 1
 500 550 l 1
 375 550 l 1
 250 550 l 1
 250 300 l 1
 250 50 l 1
 375 50 l 1
 500 50 l 1
 500 300 l 1
EndSplineSet
EndChar

StartChar: r
Encoding: 114 114 99
Width: 1000
VWidth: 0
Flags: H
LayerCount: 2
Fore
SplineSet
250 300 m 1
 250 800 l 1
 375 800 l 1
 500 800 l 1
 500 675 l 1
 500 550 l 1
 625 550 l 1
 750 550 l 1
 750 425 l 1
 750 300 l 1
 625 300 l 1
 500 300 l 1
 500 50 l 1
 500 -200 l 1
 375 -200 l 1
 250 -200 l 1
 250 300 l 1
EndSplineSet
EndChar

StartChar: s
Encoding: 115 115 100
Width: 1000
VWidth: 0
Flags: H
LayerCount: 2
Fore
SplineSet
500 675 m 1
 500 800 l 1
 625 800 l 1
 750 800 l 1
 750 675 l 1
 750 550 l 1
 625 550 l 1
 500 550 l 1
 500 425 l 1
 500 300 l 1
 625 300 l 1
 750 300 l 1
 750 175 l 1
 750 50 l 1
 625 50 l 1
 500 50 l 1
 500 -75 l 1
 500 -200 l 1
 375 -200 l 1
 250 -200 l 1
 250 -75 l 1
 250 50 l 1
 375 50 l 1
 500 50 l 1
 500 175 l 1
 500 300 l 1
 375 300 l 1
 250 300 l 1
 250 425 l 1
 250 550 l 1
 375 550 l 1
 500 550 l 1
 500 675 l 1
EndSplineSet
EndChar

StartChar: t
Encoding: 116 116 101
Width: 1000
VWidth: 0
Flags: H
LayerCount: 2
Fore
SplineSet
250 675 m 1
 250 800 l 1
 375 800 l 1
 500 800 l 1
 500 675 l 1
 500 550 l 1
 625 550 l 1
 750 550 l 1
 750 425 l 1
 750 300 l 1
 625 300 l 1
 500 300 l 1
 500 50 l 1
 500 -200 l 1
 375 -200 l 1
 250 -200 l 1
 250 50 l 1
 250 300 l 1
 125 300 l 1
 0 300 l 1
 0 425 l 1
 0 550 l 1
 125 550 l 1
 250 550 l 1
 250 675 l 1
EndSplineSet
EndChar

StartChar: u
Encoding: 117 117 102
Width: 1000
VWidth: 0
Flags: H
LayerCount: 2
Fore
SplineSet
0 300 m 1
 0 550 l 1
 125 550 l 1
 250 550 l 1
 250 300 l 1
 250 50 l 1
 375 50 l 1
 500 50 l 1
 500 300 l 1
 500 550 l 1
 625 550 l 1
 750 550 l 1
 750 175 l 1
 750 -200 l 1
 500 -200 l 1
 250 -200 l 1
 250 -75 l 1
 250 50 l 1
 125 50 l 1
 0 50 l 1
 0 300 l 1
EndSplineSet
EndChar

StartChar: v
Encoding: 118 118 103
Width: 1000
VWidth: 0
Flags: H
LayerCount: 2
Fore
SplineSet
0 300 m 1
 0 550 l 1
 125 550 l 1
 250 550 l 1
 250 425 l 1
 250 300 l 1
 375 300 l 1
 500 300 l 1
 500 425 l 1
 500 550 l 1
 625 550 l 1
 750 550 l 1
 750 300 l 1
 750 50 l 1
 625 50 l 1
 500 50 l 1
 500 -75 l 1
 500 -200 l 1
 375 -200 l 1
 250 -200 l 1
 250 -75 l 1
 250 50 l 1
 125 50 l 1
 0 50 l 1
 0 300 l 1
EndSplineSet
EndChar

StartChar: w
Encoding: 119 119 104
Width: 1000
VWidth: 0
Flags: H
LayerCount: 2
Fore
SplineSet
0 300 m 1
 0 550 l 1
 125 550 l 1
 250 550 l 1
 250 300 l 1
 250 50 l 1
 375 50 l 1
 500 50 l 1
 500 300 l 1
 500 550 l 1
 750 550 l 1
 1000 550 l 1
 1000 300 l 1
 1000 50 l 1
 875 50 l 1
 750 50 l 1
 750 -75 l 1
 750 -200 l 1
 500 -200 l 1
 250 -200 l 1
 250 -75 l 1
 250 50 l 1
 125 50 l 1
 0 50 l 1
 0 300 l 1
EndSplineSet
EndChar

StartChar: x
Encoding: 120 120 105
Width: 1000
VWidth: 0
Flags: H
LayerCount: 2
Fore
SplineSet
0 425 m 1
 0 550 l 1
 125 550 l 1
 250 550 l 1
 250 425 l 1
 250 300 l 1
 375 300 l 1
 500 300 l 1
 500 425 l 1
 500 550 l 1
 625 550 l 1
 750 550 l 1
 750 425 l 1
 750 300 l 1
 625 300 l 1
 500 300 l 1
 500 175 l 1
 500 50 l 1
 625 50 l 1
 750 50 l 1
 750 -75 l 1
 750 -200 l 1
 625 -200 l 1
 500 -200 l 1
 500 -75 l 1
 500 50 l 1
 375 50 l 1
 250 50 l 1
 250 -75 l 1
 250 -200 l 1
 125 -200 l 1
 0 -200 l 1
 0 -75 l 1
 0 50 l 1
 125 50 l 1
 250 50 l 1
 250 175 l 1
 250 300 l 1
 125 300 l 1
 0 300 l 1
 0 425 l 1
EndSplineSet
EndChar

StartChar: y
Encoding: 121 121 106
Width: 1000
VWidth: 0
Flags: H
LayerCount: 2
Fore
SplineSet
0 425 m 1
 0 550 l 1
 125 550 l 1
 250 550 l 1
 250 425 l 1
 250 300 l 1
 375 300 l 1
 500 300 l 1
 500 425 l 1
 500 550 l 1
 625 550 l 1
 750 550 l 1
 750 425 l 1
 750 300 l 1
 625 300 l 1
 500 300 l 1
 500 50 l 1
 500 -200 l 1
 375 -200 l 1
 250 -200 l 1
 250 50 l 1
 250 300 l 1
 125 300 l 1
 0 300 l 1
 0 425 l 1
EndSplineSet
EndChar

StartChar: z
Encoding: 122 122 107
Width: 1000
VWidth: 0
Flags: H
LayerCount: 2
Fore
SplineSet
0 425 m 1
 0 550 l 1
 250 550 l 1
 500 550 l 1
 500 300 l 1
 500 50 l 1
 625 50 l 1
 750 50 l 1
 750 -75 l 1
 750 -200 l 1
 500 -200 l 1
 250 -200 l 1
 250 50 l 1
 250 300 l 1
 125 300 l 1
 0 300 l 1
 0 425 l 1
EndSplineSet
EndChar

StartChar: braceleft
Encoding: 123 123 108
Width: 1000
VWidth: 0
Flags: H
LayerCount: 2
Fore
SplineSet
250 550 m 1
 250 800 l 1
 500 800 l 1
 750 800 l 1
 750 675 l 1
 750 550 l 1
 625 550 l 1
 500 550 l 1
 500 300 l 1
 500 50 l 1
 625 50 l 1
 750 50 l 1
 750 -75 l 1
 750 -200 l 1
 500 -200 l 1
 250 -200 l 1
 250 -75 l 1
 250 50 l 1
 125 50 l 1
 0 50 l 1
 0 175 l 1
 0 300 l 1
 125 300 l 1
 250 300 l 1
 250 550 l 1
EndSplineSet
EndChar

StartChar: bar
Encoding: 124 124 109
Width: 1000
VWidth: 0
Flags: H
LayerCount: 2
Fore
SplineSet
250 300 m 1
 250 800 l 1
 375 800 l 1
 500 800 l 1
 500 300 l 1
 500 -200 l 1
 375 -200 l 1
 250 -200 l 1
 250 300 l 1
EndSplineSet
EndChar

StartChar: braceright
Encoding: 125 125 110
Width: 1000
VWidth: 0
Flags: H
LayerCount: 2
Fore
SplineSet
250 675 m 1
 250 800 l 1
 500 800 l 1
 750 800 l 1
 750 550 l 1
 750 300 l 1
 875 300 l 1
 1000 300 l 1
 1000 175 l 1
 1000 50 l 1
 875 50 l 1
 750 50 l 1
 750 -75 l 1
 750 -200 l 1
 500 -200 l 1
 250 -200 l 1
 250 -75 l 1
 250 50 l 1
 375 50 l 1
 500 50 l 1
 500 300 l 1
 500 550 l 1
 375 550 l 1
 250 550 l 1
 250 675 l 1
EndSplineSet
EndChar

StartChar: asciitilde
Encoding: 126 126 111
Width: 1000
VWidth: 0
Flags: H
LayerCount: 2
Fore
SplineSet
250 425 m 1
 250 550 l 1
 375 550 l 1
 500 550 l 1
 500 425 l 1
 500 300 l 1
 625 300 l 1
 750 300 l 1
 750 425 l 1
 750 550 l 1
 875 550 l 1
 1000 550 l 1
 1000 425 l 1
 1000 300 l 1
 875 300 l 1
 750 300 l 1
 750 175 l 1
 750 50 l 1
 625 50 l 1
 500 50 l 1
 500 175 l 1
 500 300 l 1
 375 300 l 1
 250 300 l 1
 250 175 l 1
 250 50 l 1
 125 50 l 1
 0 50 l 1
 0 175 l 1
 0 300 l 1
 125 300 l 1
 250 300 l 1
 250 425 l 1
EndSplineSet
EndChar

StartChar: registered
Encoding: 174 174 112
Width: 1000
VWidth: 0
Flags: H
LayerCount: 2
Fore
SplineSet
250 425 m 1
 250 550 l 1
 375 550 l 1
 500 550 l 1
 500 425 l 1
 500 300 l 1
 625 300 l 1
 750 300 l 1
 750 425 l 1
 750 550 l 1
 875 550 l 1
 1000 550 l 1
 1000 425 l 1
 1000 300 l 1
 875 300 l 1
 750 300 l 1
 750 175 l 1
 750 50 l 1
 875 50 l 1
 1000 50 l 1
 1000 -75 l 1
 1000 -200 l 1
 875 -200 l 1
 750 -200 l 1
 750 -75 l 1
 750 50 l 1
 625 50 l 1
 500 50 l 1
 500 -75 l 1
 500 -200 l 1
 375 -200 l 1
 250 -200 l 1
 250 -75 l 1
 250 50 l 1
 125 50 l 1
 0 50 l 1
 0 175 l 1
 0 300 l 1
 125 300 l 1
 250 300 l 1
 250 425 l 1
500 175 m 1
 500 300 l 1
 375 300 l 1
 250 300 l 1
 250 175 l 1
 250 50 l 1
 375 50 l 1
 500 50 l 1
 500 175 l 1
EndSplineSet
EndChar

StartChar: macron
Encoding: 175 175 113
Width: 1000
VWidth: 0
Flags: H
LayerCount: 2
Fore
SplineSet
0 425 m 1
 0 550 l 1
 125 550 l 1
 250 550 l 1
 250 425 l 1
 250 300 l 1
 375 300 l 1
 500 300 l 1
 500 425 l 1
 500 550 l 1
 625 550 l 1
 750 550 l 1
 750 425 l 1
 750 300 l 1
 875 300 l 1
 1000 300 l 1
 1000 175 l 1
 1000 50 l 1
 875 50 l 1
 750 50 l 1
 750 -75 l 1
 750 -200 l 1
 625 -200 l 1
 500 -200 l 1
 500 -75 l 1
 500 50 l 1
 375 50 l 1
 250 50 l 1
 250 -75 l 1
 250 -200 l 1
 125 -200 l 1
 0 -200 l 1
 0 -75 l 1
 0 50 l 1
 125 50 l 1
 250 50 l 1
 250 175 l 1
 250 300 l 1
 125 300 l 1
 0 300 l 1
 0 425 l 1
750 175 m 1
 750 300 l 1
 625 300 l 1
 500 300 l 1
 500 175 l 1
 500 50 l 1
 625 50 l 1
 750 50 l 1
 750 175 l 1
EndSplineSet
EndChar

StartChar: degree
Encoding: 176 176 114
Width: 1000
VWidth: 0
Flags: H
LayerCount: 2
Fore
SplineSet
250 675 m 1
 250 800 l 1
 375 800 l 1
 500 800 l 1
 500 675 l 1
 500 550 l 1
 625 550 l 1
 750 550 l 1
 750 675 l 1
 750 800 l 1
 875 800 l 1
 1000 800 l 1
 1000 675 l 1
 1000 550 l 1
 875 550 l 1
 750 550 l 1
 750 425 l 1
 750 300 l 1
 875 300 l 1
 1000 300 l 1
 1000 175 l 1
 1000 50 l 1
 875 50 l 1
 750 50 l 1
 750 -75 l 1
 750 -200 l 1
 625 -200 l 1
 500 -200 l 1
 500 -75 l 1
 500 50 l 1
 375 50 l 1
 250 50 l 1
 250 -75 l 1
 250 -200 l 1
 125 -200 l 1
 0 -200 l 1
 0 -75 l 1
 0 50 l 1
 125 50 l 1
 250 50 l 1
 250 175 l 1
 250 300 l 1
 125 300 l 1
 0 300 l 1
 0 425 l 1
 0 550 l 1
 125 550 l 1
 250 550 l 1
 250 675 l 1
500 425 m 1
 500 550 l 1
 375 550 l 1
 250 550 l 1
 250 425 l 1
 250 300 l 1
 375 300 l 1
 500 300 l 1
 500 175 l 1
 500 50 l 1
 625 50 l 1
 750 50 l 1
 750 175 l 1
 750 300 l 1
 625 300 l 1
 500 300 l 1
 500 425 l 1
EndSplineSet
EndChar

StartChar: plusminus
Encoding: 177 177 115
Width: 1000
VWidth: 0
Flags: H
LayerCount: 2
Fore
SplineSet
0 550 m 1
 0 800 l 1
 250 800 l 1
 500 800 l 1
 500 675 l 1
 500 550 l 1
 625 550 l 1
 750 550 l 1
 750 675 l 1
 750 800 l 1
 875 800 l 1
 1000 800 l 1
 1000 675 l 1
 1000 550 l 1
 875 550 l 1
 750 550 l 1
 750 425 l 1
 750 300 l 1
 875 300 l 1
 1000 300 l 1
 1000 50 l 1
 1000 -200 l 1
 750 -200 l 1
 500 -200 l 1
 500 -75 l 1
 500 50 l 1
 375 50 l 1
 250 50 l 1
 250 -75 l 1
 250 -200 l 1
 125 -200 l 1
 0 -200 l 1
 0 -75 l 1
 0 50 l 1
 125 50 l 1
 250 50 l 1
 250 175 l 1
 250 300 l 1
 125 300 l 1
 0 300 l 1
 0 550 l 1
500 425 m 1
 500 550 l 1
 375 550 l 1
 250 550 l 1
 250 425 l 1
 250 300 l 1
 375 300 l 1
 500 300 l 1
 500 175 l 1
 500 50 l 1
 625 50 l 1
 750 50 l 1
 750 175 l 1
 750 300 l 1
 625 300 l 1
 500 300 l 1
 500 425 l 1
EndSplineSet
EndChar

StartChar: uni00B2
Encoding: 178 178 116
Width: 1000
VWidth: 0
Flags: H
LayerCount: 2
Fore
SplineSet
0 300 m 1
 0 800 l 1
 250 800 l 1
 500 800 l 1
 500 675 l 1
 500 550 l 1
 625 550 l 1
 750 550 l 1
 750 675 l 1
 750 800 l 1
 875 800 l 1
 1000 800 l 1
 1000 300 l 1
 1000 -200 l 1
 750 -200 l 1
 500 -200 l 1
 500 -75 l 1
 500 50 l 1
 375 50 l 1
 250 50 l 1
 250 -75 l 1
 250 -200 l 1
 125 -200 l 1
 0 -200 l 1
 0 300 l 1
500 425 m 1
 500 550 l 1
 375 550 l 1
 250 550 l 1
 250 425 l 1
 250 300 l 1
 375 300 l 1
 500 300 l 1
 500 175 l 1
 500 50 l 1
 625 50 l 1
 750 50 l 1
 750 175 l 1
 750 300 l 1
 625 300 l 1
 500 300 l 1
 500 425 l 1
EndSplineSet
EndChar

StartChar: Ucircumflex
Encoding: 219 219 117
Width: 1000
VWidth: 0
Flags: H
LayerCount: 2
Fore
SplineSet
0 300 m 1
 0 800 l 1
 500 800 l 1
 1000 800 l 1
 1000 300 l 1
 1000 -200 l 1
 500 -200 l 1
 0 -200 l 1
 0 300 l 1
EndSplineSet
EndChar

StartChar: eth
Encoding: 240 240 118
Width: 1000
VWidth: 0
Flags: H
LayerCount: 2
Fore
SplineSet
0 550 m 1
 0 800 l 1
 500 800 l 1
 1000 800 l 1
 1000 550 l 1
 1000 300 l 1
 500 300 l 1
 0 300 l 1
 0 550 l 1
0 -75 m 1
 0 50 l 1
 500 50 l 1
 1000 50 l 1
 1000 -75 l 1
 1000 -200 l 1
 500 -200 l 1
 0 -200 l 1
 0 -75 l 1
EndSplineSet
EndChar

StartChar: ntilde
Encoding: 241 241 119
Width: 1000
VWidth: 0
Flags: H
LayerCount: 2
Fore
SplineSet
250 675 m 1
 250 800 l 1
 375 800 l 1
 500 800 l 1
 500 675 l 1
 500 550 l 1
 625 550 l 1
 750 550 l 1
 750 425 l 1
 750 300 l 1
 625 300 l 1
 500 300 l 1
 500 175 l 1
 500 50 l 1
 750 50 l 1
 1000 50 l 1
 1000 -75 l 1
 1000 -200 l 1
 500 -200 l 1
 0 -200 l 1
 0 -75 l 1
 0 50 l 1
 125 50 l 1
 250 50 l 1
 250 175 l 1
 250 300 l 1
 125 300 l 1
 0 300 l 1
 0 425 l 1
 0 550 l 1
 125 550 l 1
 250 550 l 1
 250 675 l 1
EndSplineSet
EndChar

StartChar: ograve
Encoding: 242 242 120
Width: 1000
VWidth: 0
Flags: H
LayerCount: 2
Fore
SplineSet
250 675 m 1
 250 800 l 1
 375 800 l 1
 500 800 l 1
 500 675 l 1
 500 550 l 1
 625 550 l 1
 750 550 l 1
 750 425 l 1
 750 300 l 1
 625 300 l 1
 500 300 l 1
 500 175 l 1
 500 50 l 1
 750 50 l 1
 1000 50 l 1
 1000 -75 l 1
 1000 -200 l 1
 500 -200 l 1
 0 -200 l 1
 0 -75 l 1
 0 50 l 1
 125 50 l 1
 250 50 l 1
 250 175 l 1
 250 300 l 1
 375 300 l 1
 500 300 l 1
 500 425 l 1
 500 550 l 1
 375 550 l 1
 250 550 l 1
 250 675 l 1
EndSplineSet
EndChar

StartChar: oacute
Encoding: 243 243 121
Width: 1000
VWidth: 0
Flags: H
LayerCount: 2
Fore
SplineSet
500 675 m 1
 500 800 l 1
 625 800 l 1
 750 800 l 1
 750 675 l 1
 750 550 l 1
 625 550 l 1
 500 550 l 1
 500 425 l 1
 500 300 l 1
 625 300 l 1
 750 300 l 1
 750 175 l 1
 750 50 l 1
 875 50 l 1
 1000 50 l 1
 1000 -75 l 1
 1000 -200 l 1
 500 -200 l 1
 0 -200 l 1
 0 -75 l 1
 0 50 l 1
 250 50 l 1
 500 50 l 1
 500 175 l 1
 500 300 l 1
 375 300 l 1
 250 300 l 1
 250 425 l 1
 250 550 l 1
 375 550 l 1
 500 550 l 1
 500 675 l 1
EndSplineSet
EndChar

StartChar: odieresis
Encoding: 246 246 122
Width: 1000
VWidth: 0
Flags: H
LayerCount: 2
Fore
SplineSet
250 675 m 1
 250 800 l 1
 375 800 l 1
 500 800 l 1
 500 675 l 1
 500 550 l 1
 375 550 l 1
 250 550 l 1
 250 675 l 1
0 175 m 1
 0 300 l 1
 375 300 l 1
 750 300 l 1
 750 175 l 1
 750 50 l 1
 625 50 l 1
 500 50 l 1
 500 -75 l 1
 500 -200 l 1
 375 -200 l 1
 250 -200 l 1
 250 -75 l 1
 250 50 l 1
 125 50 l 1
 0 50 l 1
 0 175 l 1
EndSplineSet
EndChar
